<svg width="24" height="24" viewBox="0 0 24 24" fill="none" xmlns="http://www.w3.org/2000/svg">
<path d="M9.51725 15.5578L12 14.052L14.4828 15.5578L13.823 12.7328L16.0193 10.848L13.1328 10.5923L12 7.94225L10.8673 10.5923L7.98075 10.848L10.177 12.7328L9.51725 15.5578ZM12 21.9155L9.073 19H5V14.927L2.0845 12L5 9.073V5H9.073L12 2.0845L14.927 5H19V9.073L21.9155 12L19 14.927V19H14.927L12 21.9155ZM12 20.5L14.5 18H18V14.5L20.5 12L18 9.5V6H14.5L12 3.5L9.5 6H6V9.5L3.5 12L6 14.5V18H9.5L12 20.5Z" fill="#A7A7A7"/>
</svg>
