<svg width="25" height="24" viewBox="0 0 25 24" fill="none" xmlns="http://www.w3.org/2000/svg">
<g opacity="0.5">
<path d="M12.1667 16.5H13.1667V11H12.1667V16.5ZM12.6667 9.577C12.8411 9.577 12.9872 9.518 13.1052 9.4C13.2232 9.282 13.2822 9.13583 13.2822 8.9615C13.2822 8.78717 13.2232 8.641 13.1052 8.523C12.9872 8.40517 12.8411 8.34625 12.6667 8.34625C12.4924 8.34625 12.3462 8.40517 12.2282 8.523C12.1102 8.641 12.0512 8.78717 12.0512 8.9615C12.0512 9.13583 12.1102 9.282 12.2282 9.4C12.3462 9.518 12.4924 9.577 12.6667 9.577ZM12.67 21C11.4255 21 10.2554 20.7638 9.15975 20.2915C8.06425 19.8192 7.11125 19.1782 6.30075 18.3685C5.49025 17.5588 4.84866 16.6067 4.376 15.512C3.90316 14.4175 3.66675 13.2479 3.66675 12.0032C3.66675 10.7587 3.90291 9.58867 4.37525 8.493C4.84758 7.3975 5.48858 6.4445 6.29825 5.634C7.10791 4.8235 8.06008 4.18192 9.15475 3.70925C10.2492 3.23642 11.4188 3 12.6635 3C13.908 3 15.0781 3.23617 16.1737 3.7085C17.2692 4.18083 18.2222 4.82183 19.0327 5.6315C19.8432 6.44117 20.4848 7.39333 20.9575 8.488C21.4303 9.5825 21.6667 10.7521 21.6667 11.9967C21.6667 13.2412 21.4306 14.4113 20.9582 15.507C20.4859 16.6025 19.8449 17.5555 19.0352 18.366C18.2256 19.1765 17.2734 19.8181 16.1787 20.2907C15.0842 20.7636 13.9147 21 12.67 21ZM12.6667 20C14.9001 20 16.7917 19.225 18.3417 17.675C19.8917 16.125 20.6667 14.2333 20.6667 12C20.6667 9.76667 19.8917 7.875 18.3417 6.325C16.7917 4.775 14.9001 4 12.6667 4C10.4334 4 8.54175 4.775 6.99175 6.325C5.44175 7.875 4.66675 9.76667 4.66675 12C4.66675 14.2333 5.44175 16.125 6.99175 17.675C8.54175 19.225 10.4334 20 12.6667 20Z" fill="#A7A7A7"/>
</g>
</svg>
